<svg width="37" height="69" viewBox="0 0 37 69" xmlns="http://www.w3.org/2000/svg">
  <!-- Outer body -->
  <path d="M18.5 1.5
           C27 1.5 34 8 34 16.5
           L34 38
           C34 51 27.5 61 18.5 67
           C9.5 61 3 51 3 38
           L3 16.5
           C3 8 10 1.5 18.5 1.5Z"
        fill="#0b2346"
        stroke="#c9a64b"
        stroke-width="1.5"/>

  <!-- Inner border -->
  <path d="M18.5 5
           C25 5 30 10 30 17
           L30 37
           C30 47.5 24.8 56 18.5 60.5
           C12.2 56 7 47.5 7 37
           L7 17
           C7 10 12 5 18.5 5Z"
        fill="none"
        stroke="#f4f1e8"
        stroke-width="1"/>

  <!-- Rope hint -->
  <path d="M18.5 3.2
           C26 3.2 32 8.8 32 16.8
           L32 37.7
           C32 49 26.2 58.2 18.5 63.5
           C10.8 58.2 5 49 5 37.7
           L5 16.8
           C5 8.8 11 3.2 18.5 3.2Z"
        fill="none"
        stroke="#e0bf66"
        stroke-width="0.8"
        stroke-dasharray="1.2 1.8"
        stroke-linecap="round"/>

  <!-- Crown-like top shape -->
  <path d="M13 8.5
           L15.5 11
           L18.5 7.5
           L21.5 11
           L24 8.5
           L24 13
           L13 13Z"
        fill="#d8b85a"/>

  <!-- Detached anchor group -->
  <g transform="translate(0 2)">
    <!-- Anchor ring -->
    <circle cx="18.5" cy="17" r="2.8" fill="none" stroke="#f4f1e8" stroke-width="1.3"/>

    <!-- Anchor stem -->
    <path d="M18.5 19.8 L18.5 37.5"
          stroke="#f4f1e8"
          stroke-width="1.7"
          stroke-linecap="round"/>

    <!-- Anchor cross bar -->
    <path d="M13.2 24.5 L23.8 24.5"
          stroke="#f4f1e8"
          stroke-width="1.3"
          stroke-linecap="round"/>

    <!-- Left arm -->
    <path d="M18.5 34.8
             C17.2 38.2 14.2 41.2 11.2 41.2
             C9.9 41.2 8.8 40.3 8.8 38.9
             C8.8 37.7 9.7 36.8 11 36.8
             C12.2 36.8 13.5 37.6 14 38.8"
          fill="none"
          stroke="#f4f1e8"
          stroke-width="1.4"
          stroke-linecap="round"
          stroke-linejoin="round"/>

    <!-- Right arm -->
    <path d="M18.5 34.8
             C19.8 38.2 22.8 41.2 25.8 41.2
             C27.1 41.2 28.2 40.3 28.2 38.9
             C28.2 37.7 27.3 36.8 26 36.8
             C24.8 36.8 23.5 37.6 23 38.8"
          fill="none"
          stroke="#f4f1e8"
          stroke-width="1.4"
          stroke-linecap="round"
          stroke-linejoin="round"/>

    <!-- Bottom sweep -->
    <path d="M13.5 45 Q18.5 48.8 23.5 45"
          fill="none"
          stroke="#f4f1e8"
          stroke-width="1.4"
          stroke-linecap="round"/>
  </g>
</svg>
