<svg width="20" height="20" viewBox="0 0 20 20" fill="none" xmlns="http://www.w3.org/2000/svg">
<path fill-rule="evenodd" clip-rule="evenodd" d="M8.13876 3.25544C6.84364 3.25544 5.60156 3.76992 4.68578 4.68571C3.76999 5.6015 3.2555 6.84358 3.2555 8.1387C3.2555 8.77998 3.38181 9.41498 3.62722 10.0074C3.87262 10.5999 4.23232 11.1382 4.68578 11.5917C5.13923 12.0451 5.67756 12.4048 6.27002 12.6502C6.86248 12.8957 7.49748 13.022 8.13876 13.022C8.78004 13.022 9.41504 12.8957 10.0075 12.6502C10.6 12.4048 11.1383 12.0451 11.5918 11.5917C12.0452 11.1382 12.4049 10.5999 12.6503 10.0074C12.8957 9.41498 13.022 8.77998 13.022 8.1387C13.022 6.84358 12.5075 5.6015 11.5918 4.68571C10.676 3.76992 9.43389 3.25544 8.13876 3.25544ZM3.53478 3.53472C4.75583 2.31367 6.41193 1.62769 8.13876 1.62769C9.86559 1.62769 11.5217 2.31367 12.7427 3.53472C13.9638 4.75577 14.6498 6.41187 14.6498 8.1387C14.6498 8.99374 14.4814 9.84041 14.1542 10.6304C13.9313 11.1684 13.6377 11.673 13.2821 12.1311L17.6669 16.5159C17.9847 16.8337 17.9847 17.349 17.6669 17.6668C17.3491 17.9847 16.8338 17.9847 16.5159 17.6668L12.1311 13.2821C11.673 13.6377 11.1685 13.9312 10.6304 14.1541C9.84047 14.4813 8.9938 14.6497 8.13876 14.6497C7.28373 14.6497 6.43706 14.4813 5.64711 14.1541C4.85715 13.8269 4.13938 13.3473 3.53478 12.7427C2.93018 12.1381 2.45058 11.4203 2.12337 10.6304C1.79616 9.84041 1.62775 8.99374 1.62775 8.1387C1.62775 6.41187 2.31373 4.75577 3.53478 3.53472Z" fill="#00163B"/>
</svg>
